<svg id="Capa_1" enable-background="new 0 0 512 512" height="512" viewBox="0 0 512 512" width="512" xmlns="http://www.w3.org/2000/svg"><path d="m210.754 199.587-38.035-14.728 24.355-62.897c4.287-11.071 11.422-20.813 20.683-28.241l10.803-8.665c12.603-10.108 31.422-2.82 33.931 13.139l2.151 13.681c1.844 11.728.557 23.734-3.73 34.805l-14.364 37.094c-5.518 14.251-21.544 21.33-35.794 15.812z" fill="#9c5e5e"/><path d="m264.642 111.877-2.151-13.681c-1.45-9.226-8.354-15.544-16.355-17.288.081.381.16.764.222 1.156l2.151 13.681c1.844 11.728.557 23.734-3.73 34.805l-14.363 37.094c-5.518 14.251-21.544 21.33-35.794 15.811l-18.573-7.192-3.329 8.597 38.035 14.728c14.251 5.518 30.276-1.561 35.794-15.811l14.363-37.094c4.287-11.072 5.573-23.079 3.73-34.806z" fill="#855151"/><path d="m62.212 199.587 38.035-14.728-24.355-62.897c-4.287-11.071-11.422-20.813-20.683-28.241l-10.803-8.665c-12.603-10.108-31.422-2.82-33.931 13.139l-2.151 13.681c-1.844 11.728-.557 23.734 3.73 34.805l14.363 37.094c5.519 14.251 21.544 21.33 35.795 15.812z" fill="#9c5e5e"/><path d="m75.892 121.962c-4.287-11.071-11.422-20.813-20.683-28.241l-10.803-8.665c-6.979-5.598-15.862-5.853-22.828-2.262l9.231 7.403c9.261 7.428 16.396 17.17 20.683 28.241l24.355 62.897-38.035 14.728c-.442.171-.886.33-1.332.477 7.286 5.031 16.854 6.484 25.733 3.046l38.035-14.728z" fill="#855151"/><path d="m208.037 305.427-21.954 18.933c-28.5 24.578-70.701 24.578-99.2 0l-21.954-18.933c-17.625-15.2-27.759-37.321-27.759-60.596v-53.019c0-26.077 21.14-47.216 47.216-47.216h104.194c26.077 0 47.216 21.14 47.216 47.216v53.019c0 23.274-10.134 45.395-27.759 60.596z" fill="#efe2dd"/><path d="m197.462 145.442c2.751 5.991 4.296 12.65 4.296 19.674v53.019c0 23.274-10.134 45.395-27.759 60.596l-21.954 18.933c-23.98 20.681-57.659 23.955-84.715 9.834l19.553 16.863c28.5 24.578 70.701 24.578 99.2 0l21.954-18.933c17.625-15.2 27.759-37.321 27.759-60.596v-53.019c0-23.04-16.505-42.214-38.334-46.371z" fill="#e1d3ce"/><path d="m449.788 199.587-38.035-14.728 24.355-62.897c4.287-11.071 11.422-20.813 20.683-28.241l10.803-8.665c12.603-10.108 31.422-2.82 33.931 13.139l2.151 13.681c1.844 11.728.557 23.734-3.73 34.805l-14.364 37.094c-5.518 14.251-21.543 21.33-35.794 15.812z" fill="#685e68"/><path d="m503.676 111.877-2.151-13.681c-1.45-9.226-8.354-15.544-16.355-17.288.081.381.16.764.222 1.156l2.151 13.681c1.844 11.728.557 23.734-3.73 34.805l-14.363 37.094c-5.518 14.251-21.544 21.33-35.794 15.811l-18.573-7.192-3.329 8.597 38.035 14.728c14.251 5.518 30.276-1.561 35.794-15.811l14.363-37.094c4.287-11.072 5.574-23.079 3.73-34.806z" fill="#554e56"/><path d="m301.246 199.587 38.035-14.728-24.355-62.897c-4.287-11.071-11.422-20.813-20.683-28.241l-10.803-8.665c-12.603-10.108-31.422-2.82-33.931 13.139l-2.151 13.681c-1.844 11.728-.557 23.734 3.73 34.805l14.363 37.094c5.519 14.251 21.545 21.33 35.795 15.812z" fill="#685e68"/><path d="m314.926 121.962c-4.287-11.071-11.422-20.813-20.683-28.241l-10.803-8.665c-6.979-5.598-15.862-5.853-22.828-2.262l9.231 7.403c9.261 7.428 16.396 17.17 20.683 28.241l24.355 62.897-38.035 14.728c-.442.171-.886.33-1.332.477 7.286 5.031 16.854 6.484 25.733 3.046l38.035-14.728z" fill="#554e56"/><path d="m447.071 305.427-21.954 18.933c-28.5 24.578-70.701 24.578-99.2 0l-21.954-18.933c-17.625-15.2-27.759-37.321-27.759-60.596v-53.019c0-26.077 21.14-47.216 47.216-47.216h104.194c26.077 0 47.216 21.14 47.216 47.216v53.019c0 23.274-10.133 45.395-27.759 60.596z" fill="#d8d1d7"/><path d="m436.496 145.442c2.751 5.991 4.296 12.65 4.296 19.674v53.019c0 23.274-10.134 45.395-27.759 60.596l-21.954 18.933c-23.98 20.681-57.659 23.955-84.715 9.834l19.553 16.863c28.5 24.578 70.701 24.578 99.2 0l21.954-18.933c17.625-15.2 27.759-37.321 27.759-60.596v-53.019c0-23.04-16.505-42.214-38.334-46.371z" fill="#cac0c9"/><path d="m415.755 248.888v-.279c0-11.214-5.556-21.7-14.835-27.998l-7.397-5.021c-10.87-7.378-25.141-7.378-36.011 0l-7.397 5.021c-9.279 6.298-14.835 16.784-14.835 27.998v.279c0 4.172-1.646 8.122-4.394 11.26-2.957 3.377-4.749 7.798-4.749 12.639v3.749c0 23.082 18.711 41.793 41.793 41.793h15.176c23.082 0 41.793-18.711 41.793-41.793v-3.749c0-4.841-1.792-9.263-4.749-12.639-2.75-3.138-4.395-7.088-4.395-11.26z" fill="#bbb0ba"/><path d="m413.033 278.73-21.954 18.933c-11.327 9.768-24.82 15.64-38.755 17.644 4.823 1.943 10.086 3.023 15.604 3.023h15.176c23.082 0 41.793-18.711 41.793-41.793v-3.749c0-1.973-.312-3.871-.865-5.662-3.244 4.19-6.917 8.085-10.999 11.604z" fill="#ab9faa"/><path d="" style="fill:none;stroke:#00f;stroke-width:20;stroke-linecap:round;stroke-linejoin:round;stroke-miterlimit:10"/><path d="m292.632 333.054c-3.24-1.103-6.712-1.704-10.325-1.71-8.612-.013-16.438 3.36-22.22 8.863-2.312 2.201-5.979 2.155-8.306-.031-5.835-5.482-13.717-8.811-22.381-8.716-20.079.221-34.699 18.554-31.341 38.352 1.167 6.882 4.718 11.875 12.464 19.587 8.105 8.07 33.59 32.437 42.515 40.96 1.748 1.67 4.495 1.662 6.236-.016 9.2-8.869 36.038-34.766 42.554-41.31 7.899-7.933 12.578-15.093 12.594-25.475.021-14.151-9.099-26.182-21.79-30.504" fill="#ff5426"/><path d="m292.632 333.054c-3.24-1.103-6.712-1.704-10.325-1.71-.665-.001-1.326.019-1.981.058 8.346 5.822 13.803 15.497 13.786 26.444-.016 10.382-4.696 17.542-12.594 25.475-5.732 5.757-27.186 26.485-38.529 37.428 4.096 3.921 7.663 7.329 10.046 9.605 1.749 1.67 4.502 1.664 6.243-.015 9.203-8.872 36.036-34.764 42.551-41.307 7.898-7.933 12.578-15.093 12.594-25.475.02-14.15-9.1-26.181-21.791-30.503z" fill="#f04424"/><path d="m176.721 248.888v-.279c0-11.214-5.556-21.7-14.835-27.998l-7.397-5.021c-10.87-7.378-25.141-7.378-36.011 0l-7.397 5.021c-9.279 6.298-14.835 16.784-14.835 27.998v.279c0 4.172-1.646 8.122-4.394 11.26-2.957 3.377-4.749 7.798-4.749 12.639v3.749c0 23.082 18.711 41.793 41.793 41.793h15.176c23.082 0 41.793-18.711 41.793-41.793v-3.749c0-4.841-1.792-9.263-4.749-12.639-2.75-3.138-4.395-7.088-4.395-11.26z" fill="#bb8080"/><path d="m173.999 278.73-21.954 18.933c-11.327 9.768-24.82 15.64-38.755 17.644 4.823 1.943 10.086 3.023 15.604 3.023h15.176c23.082 0 41.793-18.711 41.793-41.793v-3.749c0-1.973-.312-3.871-.865-5.662-3.244 4.19-6.918 8.085-10.999 11.604z" fill="#af6c6c"/><path d="m295.052 325.946c-4.092-1.394-8.376-2.103-12.734-2.111-.022 0-.041 0-.062 0-9.758 0-19.045 3.533-26.31 9.981-7.366-6.479-16.803-9.979-26.628-9.865-11.55.127-22.425 5.289-29.836 14.161-7.614 9.116-10.831 21.127-8.825 32.953 1.561 9.205 6.524 15.643 14.569 23.653 8.018 7.983 32.482 31.381 42.627 41.069 2.329 2.225 5.312 3.336 8.295 3.336 3.001 0 6.004-1.127 8.337-3.377 8.328-8.028 36.018-34.743 42.664-41.418 7.665-7.699 14.761-16.753 14.782-30.761.025-17.017-10.776-32.137-26.879-37.621zm1.455 57.79c-6.075 6.101-30.281 29.473-40.369 39.201-9.679-9.249-32.791-31.365-40.317-38.858-7.037-7.006-9.554-10.778-10.358-15.522-1.27-7.489.751-15.076 5.545-20.816 4.658-5.577 11.22-8.692 18.476-8.772.092-.001.185-.001.277-.001 6.302 0 12.287 2.367 16.88 6.682 5.254 4.937 13.434 4.935 18.623-.003 4.604-4.382 10.636-6.793 16.992-6.793h.039c2.715.004 5.379.445 7.917 1.309 10.006 3.408 16.718 12.805 16.702 23.385-.012 7.198-2.735 12.482-10.407 20.188z"/><circle cx="77.037" cy="223.654" r="13.201"/><circle cx="195.928" cy="223.654" r="13.201"/><path d="m184.229 248.888v-.279c0-13.718-6.777-26.507-18.127-34.211l-7.397-5.021c-13.499-9.163-30.945-9.163-44.444 0l-7.397 5.021c-11.35 7.703-18.127 20.493-18.127 34.211v.279c0 2.206-.9 4.447-2.535 6.314-4.262 4.867-6.609 11.112-6.609 17.586v3.749c0 27.185 22.116 49.301 49.302 49.301h15.176c27.185 0 49.301-22.116 49.301-49.301v-3.749c0-6.474-2.347-12.719-6.609-17.587-1.634-1.865-2.534-4.107-2.534-6.313zm-5.874 27.649c0 18.904-15.38 34.284-34.284 34.284h-15.176c-18.905 0-34.285-15.38-34.285-34.284v-3.749c0-2.833 1.027-5.565 2.889-7.693 4.033-4.605 6.254-10.36 6.254-16.207v-.279c0-8.736 4.315-16.88 11.543-21.786l7.397-5.021c4.188-2.843 8.989-4.264 13.789-4.264s9.601 1.422 13.789 4.264l7.397 5.021c7.228 4.906 11.543 13.05 11.543 21.786v.279c0 5.847 2.221 11.602 6.254 16.207 1.863 2.128 2.889 4.86 2.889 7.693v3.749z"/><path d="m511.094 110.71-2.151-13.68c-1.599-10.171-8.286-18.463-17.887-22.181-9.602-3.716-20.128-2.091-28.159 4.351l-10.804 8.665c-10.281 8.245-18.229 19.098-22.987 31.386l-6.907 17.837h-93.365l-6.907-17.836c-4.758-12.289-12.707-23.142-22.987-31.387l-10.802-8.665c-8.032-6.442-18.56-8.069-28.16-4.35-1.389.538-2.71 1.182-3.971 1.904-10.111-5.879-22.757-5.084-32.146 2.446l-10.803 8.665c-10.281 8.245-18.229 19.098-22.987 31.387l-6.907 17.836h-93.363l-6.907-17.836c-4.758-12.289-12.707-23.142-22.987-31.387l-10.804-8.665c-8.031-6.442-18.559-8.068-28.159-4.351-9.601 3.718-16.288 12.01-17.887 22.181l-2.151 13.681c-2.046 13.018-.612 26.394 4.146 38.682l14.363 37.094c2.165 5.589 5.685 10.485 10.246 14.291v44.054c0 25.481 11.067 49.64 30.364 66.281l21.954 18.933c15.147 13.062 34.503 20.256 54.504 20.256s39.357-7.194 54.504-20.256l21.954-18.933c19.297-16.642 30.364-40.8 30.364-66.281v-44.072c4.554-3.805 8.088-8.7 10.246-14.273l2.449-6.327 2.45 6.326c2.17 5.602 5.69 10.469 10.246 14.27v44.074c0 25.481 11.067 49.64 30.364 66.281l21.954 18.933c15.147 13.062 34.503 20.256 54.504 20.256s39.357-7.194 54.504-20.256l21.954-18.933c19.297-16.642 30.364-40.8 30.364-66.281v-44.067c4.558-3.803 8.078-8.68 10.246-14.278l14.363-37.093c4.757-12.288 6.191-25.663 4.145-38.682zm-492.038 33.26c-3.805-9.824-4.951-20.519-3.315-30.927l2.151-13.681c.757-4.819 3.925-8.748 8.474-10.509s9.536-.991 13.342 2.061l10.804 8.665c8.219 6.592 14.574 15.269 18.378 25.095l5.189 13.401c-20.33 3.892-36.691 19.063-42.309 38.731zm209.232 100.861c0 21.109-9.168 41.123-25.154 54.909l-21.955 18.933c-25.481 21.976-63.912 21.976-89.393 0l-21.954-18.933c-15.986-13.786-25.154-33.8-25.154-54.909v-53.019c0-21.896 17.813-39.708 39.708-39.708h104.194c21.895 0 39.708 17.813 39.708 39.708zm12.908-68.026c-5.619-19.668-21.979-34.839-42.309-38.731l5.189-13.401c3.804-9.825 10.159-18.502 18.378-25.094l10.803-8.665c3.753-3.009 8.001-3.491 11.656-2.576-1.37 2.673-2.335 5.594-2.822 8.692l-2.151 13.681c-2.046 13.018-.613 26.394 4.146 38.682l3.862 9.974zm16.894-32.835c-3.805-9.824-4.951-20.519-3.315-30.927l2.151-13.681c.757-4.819 3.925-8.748 8.474-10.509 4.549-1.762 9.536-.991 13.342 2.061l10.804 8.665c8.219 6.592 14.574 15.269 18.378 25.094l5.189 13.401c-20.33 3.892-36.691 19.063-42.309 38.731zm209.232 100.861c0 21.109-9.168 41.123-25.154 54.909l-21.955 18.933c-25.481 21.976-63.912 21.976-89.393 0l-21.954-18.933c-15.986-13.786-25.154-33.8-25.154-54.909v-53.019c0-21.896 17.813-39.708 39.708-39.708h104.193c21.895 0 39.708 17.813 39.708 39.708v53.019zm25.622-100.86-12.714 32.835c-5.618-19.668-21.979-34.84-42.309-38.732l5.189-13.401c3.804-9.825 10.159-18.502 18.378-25.094l10.804-8.665c3.806-3.052 8.793-3.823 13.342-2.061 4.549 1.761 7.717 5.69 8.474 10.509l2.151 13.68c1.636 10.409.49 21.104-3.315 30.929z"/><circle cx="316.072" cy="223.654" r="13.201"/><circle cx="434.963" cy="223.654" r="13.201"/><path d="m423.263 248.888v-.279c0-13.718-6.777-26.507-18.127-34.211l-7.397-5.021c-13.499-9.163-30.945-9.163-44.444 0l-7.397 5.021c-11.35 7.703-18.127 20.493-18.127 34.211v.279c0 2.206-.9 4.447-2.535 6.314-4.262 4.867-6.608 11.112-6.608 17.586v3.749c0 27.185 22.116 49.301 49.301 49.301h15.176c27.185 0 49.302-22.116 49.302-49.301v-3.749c0-6.474-2.347-12.719-6.609-17.587-1.635-1.865-2.535-4.107-2.535-6.313zm-5.873 27.649c0 18.904-15.38 34.284-34.285 34.284h-15.176c-18.904 0-34.284-15.38-34.284-34.284v-3.749c0-2.833 1.026-5.565 2.889-7.693 4.033-4.605 6.254-10.36 6.254-16.207v-.279c0-8.736 4.315-16.88 11.543-21.786l7.397-5.021c4.188-2.843 8.989-4.264 13.789-4.264s9.601 1.422 13.789 4.264l7.397 5.021c7.228 4.906 11.543 13.05 11.543 21.786v.279c0 5.847 2.221 11.602 6.254 16.207 1.863 2.128 2.89 4.86 2.89 7.693z"/><path d="m398.433 281.586c-6.049-2.075-11.315-6.041-15.047-11.246v-11.194c0-4.142-3.358-7.5-7.5-7.5s-7.5 3.358-7.5 7.5v11.197c-3.639 5.073-8.754 8.983-14.616 11.092-3.897 1.402-5.92 5.698-4.518 9.596s5.699 5.922 9.596 4.518c6.422-2.311 12.251-6.062 17.037-10.888 4.943 4.989 10.997 8.821 17.683 11.113.806.277 1.626.408 2.434.408 3.116 0 6.027-1.957 7.094-5.069 1.342-3.918-.745-8.183-4.663-9.527z"/><path d="m395.136 256.836c0 10.631-8.618 8.107-19.25 8.107-10.631 0-19.25 2.525-19.25-8.107s8.619-19.25 19.25-19.25 19.25 8.618 19.25 19.25z"/><path d="m158.895 281.586c-6.049-2.075-11.316-6.041-15.047-11.247v-11.194c0-4.142-3.358-7.5-7.5-7.5s-7.5 3.358-7.5 7.5v11.198c-3.639 5.073-8.754 8.983-14.616 11.092-3.898 1.402-5.921 5.698-4.519 9.596s5.701 5.923 9.596 4.519c6.422-2.31 12.252-6.062 17.037-10.888 4.943 4.988 10.997 8.821 17.683 11.113.806.276 1.626.408 2.434.408 3.116 0 6.027-1.957 7.094-5.069 1.343-3.918-.744-8.184-4.662-9.528z"/><path d="m155.598 256.836c0 10.631-8.619 8.107-19.25 8.107s-19.25 2.525-19.25-8.107 8.619-19.25 19.25-19.25c10.632 0 19.25 8.618 19.25 19.25z"/></svg>