<svg id="Capa_1" enable-background="new 0 0 512 512" height="512" viewBox="0 0 512 512" width="512" xmlns="http://www.w3.org/2000/svg"><g><g><circle cx="256" cy="363.683" fill="#f3d57a" r="124.25"/><path d="m239.433 222.867c0 9.15 7.417 16.567 16.567 16.567s16.567-7.417 16.567-16.567v-16.567c0-9.15-7.417-16.567-16.567-16.567s-16.567 7.417-16.567 16.567z" fill="#eebe3b"/><path d="m173.166 156.6h-149.1c-9.15 0-16.567-7.417-16.567-16.567v-66.266c0-9.15 7.417-16.567 16.567-16.567h149.1 231.934 82.834c9.15 0 16.567 7.417 16.567 16.567v66.267c0 9.15-7.417 16.567-16.567 16.567h-82.834-231.934z" fill="#de5964"/><path d="m487.933 57.2h-23c9.15 0 16.567 7.417 16.567 16.567v66.267c0 9.15-7.417 16.567-16.567 16.567h23c9.15 0 16.567-7.417 16.567-16.567v-66.267c0-9.15-7.417-16.567-16.567-16.567z" fill="#d14a54"/><path d="m338.833 57.2h-115.966c-9.15 0-16.567 7.417-16.567 16.567v66.267c0 9.15 7.417 16.567 16.567 16.567h115.967v16.567c0 9.149-7.417 16.567-16.567 16.567h-132.534c-9.15 0-16.567-7.417-16.567-16.567v-132.535c0-9.149 7.417-16.567 16.567-16.567h132.533c9.15 0 16.567 7.417 16.567 16.567z" fill="#f3d57a"/><path d="m396.817 173.167h-16.567c-4.575 0-8.283-3.709-8.283-8.283v-115.967c0-4.575 3.708-8.283 8.283-8.283h16.567c4.575 0 8.283 3.709 8.283 8.283v115.967c0 4.574-3.709 8.283-8.283 8.283z" fill="#f3d57a"/><path d="m305.7 123.467c9.149 0 16.567-7.417 16.567-16.567s-7.417-16.567-16.567-16.567h-49.7c-9.15 0-16.567 7.417-16.567 16.567s7.417 16.567 16.567 16.567z" fill="#f3d57a"/><g fill="#eebe3b"><g><path d="m315.833 156.6v16.567c0 9.149-7.417 16.567-16.567 16.567h23c9.15 0 16.567-7.417 16.567-16.567v-16.567z"/><path d="m322.267 24.067h-23c9.15 0 16.567 7.417 16.567 16.567v16.566h23v-16.567c-.001-9.149-7.418-16.566-16.567-16.566z"/></g><path d="m305.7 90.333h-23c9.149 0 16.567 7.417 16.567 16.567s-7.417 16.567-16.567 16.567h23c9.149 0 16.567-7.417 16.567-16.567 0-9.149-7.418-16.567-16.567-16.567z"/><path d="m256 239.433c-3.878 0-7.712.187-11.5.535 63.229 5.804 112.75 58.972 112.75 123.715s-49.521 117.912-112.75 123.716c3.788.348 7.622.535 11.5.535 68.621 0 124.25-55.629 124.25-124.25 0-68.622-55.629-124.251-124.25-124.251z"/><circle cx="256" cy="305.7" r="16.567"/><ellipse cx="322.267" cy="338.833" rx="16.567" ry="16.567" transform="matrix(.707 -.707 .707 .707 -145.202 327.119)"/><ellipse cx="189.733" cy="338.833" rx="16.567" ry="16.567" transform="matrix(.23 -.973 .973 .23 -183.628 445.643)"/><path d="m233.926 372.071-.611 1.501c-4.52 11.099-10.582 21.176-17.921 29.793l-5.197 6.102c-6.344 7.448-4.708 20.245 3.198 25.028 8.24 4.984 17.938 4.984 26.178 0l3.09-1.869c8.24-4.984 17.938-4.984 26.178 0l3.09 1.869c8.24 4.984 17.938 4.984 26.178 0l.496-.3c7.764-4.697 9.514-17.17 3.466-24.704l-7.603-9.47c-6.263-7.8-11.516-16.699-15.584-26.396l-.784-1.87c-9.209-21.952-35.18-21.766-44.174.316z"/></g></g><g><path d="m256 329.767c13.271 0 24.066-10.796 24.066-24.066s-10.795-24.068-24.066-24.068c-13.27 0-24.066 10.796-24.066 24.067s10.796 24.067 24.066 24.067zm0-33.134c4.999 0 9.066 4.067 9.066 9.067 0 4.999-4.067 9.066-9.066 9.066s-9.066-4.067-9.066-9.066 4.067-9.067 9.066-9.067z"/><path d="m322.267 362.9c13.271 0 24.066-10.796 24.066-24.066 0-13.271-10.796-24.067-24.066-24.067s-24.067 10.796-24.067 24.066 10.796 24.067 24.067 24.067zm0-33.133c4.999 0 9.066 4.067 9.066 9.067 0 4.999-4.067 9.066-9.066 9.066s-9.066-4.067-9.066-9.066c-.001-5 4.067-9.067 9.066-9.067z"/><path d="m189.733 314.767c-13.27 0-24.066 10.796-24.066 24.067 0 13.27 10.796 24.066 24.066 24.066 13.271 0 24.066-10.796 24.066-24.066.001-13.271-10.795-24.067-24.066-24.067zm0 33.133c-4.999 0-9.066-4.067-9.066-9.066s4.067-9.067 9.066-9.067 9.066 4.067 9.066 9.067c.001 4.998-4.067 9.066-9.066 9.066z"/><path d="m226.98 369.243-.611 1.501c-4.23 10.388-9.845 19.727-16.684 27.759l-5.197 6.102c-4.535 5.325-6.534 12.876-5.348 20.199 1.122 6.928 4.903 12.799 10.374 16.109 10.628 6.429 23.317 6.428 33.941 0l3.09-1.869c5.852-3.539 12.562-3.539 18.414 0l3.09 1.869c5.314 3.215 11.143 4.822 16.972 4.822 5.827 0 11.656-1.607 16.967-4.82l.499-.302c5.357-3.24 9.114-8.977 10.311-15.738 1.291-7.291-.487-14.609-4.879-20.079l-7.603-9.469c-5.83-7.263-10.715-15.54-14.517-24.602l-.784-1.87c-5.448-12.991-16.564-21.047-29.081-20.955-12.525.065-23.619 8.244-28.954 21.343zm13.282 7.158.611-1.501c3.046-7.48 8.706-11.966 15.139-12h.072c6.368 0 12.008 4.39 15.099 11.757l.784 1.871c4.344 10.352 9.945 19.836 16.651 28.19l7.604 9.469c1.659 2.066 2.334 5.085 1.805 8.074-.437 2.467-1.672 4.53-3.301 5.516l-.499.302c-5.852 3.539-12.562 3.539-18.414 0l-3.09-1.869c-5.313-3.215-11.142-4.822-16.971-4.822-5.828 0-11.658 1.608-16.971 4.822l-3.09 1.869c-5.852 3.539-12.562 3.539-18.414 0-1.674-1.013-2.92-3.134-3.331-5.674-.492-3.036.241-6.055 1.961-8.074l5.197-6.102c7.877-9.25 14.323-19.958 19.158-31.828z"/><path d="m487.934 49.7h-75.334v-.784c0-8.703-7.08-15.783-15.783-15.783h-16.567c-8.703 0-15.783 7.08-15.783 15.783v.784h-18.134v-9.067c0-13.27-10.796-24.066-24.066-24.066h-132.534c-13.27 0-24.066 10.796-24.066 24.066v9.067h-89.325c-4.143 0-7.5 3.358-7.5 7.5s3.357 7.5 7.5 7.5h89.325v84.4h-141.601c-4.999 0-9.066-4.067-9.066-9.067v-66.266c0-4.999 4.067-9.066 9.066-9.066h22.275c4.143 0 7.5-3.358 7.5-7.5s-3.357-7.5-7.5-7.5h-22.275c-13.27-.001-24.066 10.796-24.066 24.066v66.267c0 13.27 10.796 24.067 24.066 24.067h141.601v9.066c0 13.27 10.796 24.067 24.066 24.067h43.979c-1.143 2.8-1.779 5.86-1.779 9.066v16.567c0 3.896.936 7.575 2.587 10.834-18.141 2.977-35.465 9.702-50.952 19.913-3.459 2.28-4.414 6.932-2.134 10.39 2.282 3.458 6.932 4.412 10.39 2.133 19.056-12.564 41.247-19.204 64.176-19.204 64.376 0 116.75 52.374 116.75 116.75s-52.374 116.75-116.75 116.75-116.75-52.374-116.75-116.75c0-29.445 10.994-57.566 30.956-79.184 2.811-3.043 2.621-7.788-.422-10.598s-7.786-2.621-10.598.421c-22.529 24.397-34.936 56.132-34.936 89.36 0 72.647 59.102 131.75 131.75 131.75s131.75-59.103 131.75-131.75c0-65.332-47.803-119.701-110.267-129.989 1.648-3.257 2.583-6.934 2.583-10.827v-16.566c0-3.206-.635-6.266-1.779-9.066h43.979c13.271 0 24.066-10.796 24.066-24.067v-9.067h18.134v.783c0 8.703 7.08 15.783 15.783 15.783h16.566c8.703 0 15.783-7.08 15.783-15.783v-.783h75.334c13.271 0 24.066-10.796 24.066-24.067v-66.266c.002-13.271-10.794-24.067-24.064-24.067zm-108.467 31.567h18.133v51.267h-18.133zm0-32.35c0-.432.352-.783.783-.783h16.566c.432 0 .783.352.783.783v17.35h-18.133v-17.35zm-114.401 157.383v16.567c0 4.999-4.067 9.066-9.066 9.066s-9.066-4.067-9.066-9.066v-16.567c0-4.999 4.067-9.066 9.066-9.066s9.066 4.067 9.066 9.066zm57.201-24.067h-132.534c-4.999 0-9.066-4.067-9.066-9.067v-132.533c0-4.999 4.067-9.066 9.066-9.066h132.533c4.999 0 9.066 4.067 9.066 9.066v9.067h-108.465c-13.271 0-24.067 10.796-24.067 24.066v66.267c0 13.27 10.797 24.067 24.067 24.067h108.466v9.066c0 5-4.067 9.067-9.066 9.067zm-99.4-33.133c-5 0-9.067-4.067-9.067-9.067v-66.266c0-4.999 4.067-9.066 9.067-9.066h141.6v84.4h-141.6zm174.733 15.783c0 .432-.352.783-.783.783h-16.567c-.432 0-.783-.352-.783-.783v-17.35h18.133zm99.4-24.85c0 4.999-4.067 9.067-9.066 9.067h-75.334v-84.4h75.334c4.999 0 9.066 4.067 9.066 9.066z"/><path d="m305.7 82.834h-49.7c-13.27 0-24.066 10.796-24.066 24.066 0 13.271 10.796 24.067 24.066 24.067h49.7c13.271 0 24.066-10.796 24.066-24.067.001-13.27-10.795-24.066-24.066-24.066zm0 33.133h-49.7c-4.999 0-9.066-4.067-9.066-9.067 0-4.999 4.067-9.066 9.066-9.066h49.7c4.999 0 9.066 4.067 9.066 9.066.001 4.999-4.067 9.067-9.066 9.067z"/><path d="m131.75 114.4c4.143 0 7.5-3.358 7.5-7.5s-3.357-7.5-7.5-7.5h-8.283c-4.143 0-7.5 3.358-7.5 7.5s3.357 7.5 7.5 7.5z"/><path d="m49.7 106.9c0 4.142 3.357 7.5 7.5 7.5h8.283c4.143 0 7.5-3.358 7.5-7.5s-3.357-7.5-7.5-7.5h-8.283c-4.142 0-7.5 3.358-7.5 7.5z"/><path d="m454.8 99.4h-8.283c-4.143 0-7.5 3.358-7.5 7.5s3.357 7.5 7.5 7.5h8.283c4.143 0 7.5-3.358 7.5-7.5s-3.358-7.5-7.5-7.5z"/></g></g></svg>