<svg id="_x30_1_Parrot" enable-background="new 0 0 64 64" height="512" viewBox="0 0 64 64" width="512" xmlns="http://www.w3.org/2000/svg"><path d="m54.99 53.74c.64.88 1.01 1.94 1.01 3.08 0 2.86-2.32 5.18-5.18 5.18h-37.64c-1.43 0-2.72-.58-3.66-1.52s-1.52-2.23-1.52-3.66c0-2.27 1.48-4.28 3.65-4.95l20.36-6.32 20.34 6.32c1.09.33 2 1.01 2.64 1.87z" fill="#aab2bd"/><path d="m41 4v6.67l-6.82 2.27c-.55-.58-1.32-.94-2.18-.94s-1.63.36-2.18.94l-6.82-2.27v-6.67c0-1.1.9-2 2-2h14c1.1 0 2 .9 2 2z" fill="#aab2bd"/><path d="m40.72 19.24-8.88 7.61-8.57-7.61 6.55-2.18c.55.58 1.32.94 2.18.94s1.63-.36 2.18-.94z" fill="#aab2bd"/><path d="m32.01 45.55-20.36 6.32c-2.17.67-3.65 2.68-3.65 4.95v-25.82l2-2v-2-4-4-4-4-2c-.78-.78-1.22-1.22-2-2l15-3v6.67l-2-.67s-2 2-2 5 2 5 2 5l2.27-.76 8.57 7.61-4.84 4.15v13z" fill="#ffeaa7"/><path d="m56 31v25.82c0-1.14-.37-2.2-1.01-3.08-.64-.86-1.55-1.54-2.64-1.87l-20.34-6.32-5.01-1.55v-13l4.84-4.15 8.88-7.61 2.28.76s2-2 2-5-2-5-2-5l-2 .67v-6.67l15 3c-.78.78-1.22 1.22-2 2v2 4 4 4 4 2z" fill="#ffeaa7"/><path d="m8 7c-.55 0-1.05.22-1.41.59-.37.36-.59.86-.59 1.41v2 4 4 4 4 2c0 1.1.9 2 2 2l2-2v-2-4-4-4-4-2c-.78-.78-1.22-1.22-2-2z" fill="#fcd770"/><path d="m57.41 7.59c-.36-.37-.86-.59-1.41-.59-.78.78-1.22 1.22-2 2v2 4 4 4 4 2l2 2c1.1 0 2-.9 2-2v-2-4-4-4-4-2c0-.55-.22-1.05-.59-1.41z" fill="#fcd770"/><g fill="#ff826e"><path d="m23 10.67 6.82 2.27c-.5.53-.82 1.26-.82 2.06s.32 1.53.82 2.06l-6.55 2.18-2.27.76s-2-2-2-5 2-5 2-5z"/><path d="m41 10.67 2-.67s2 2 2 5-2 5-2 5l-2.28-.76-6.54-2.18c.51-.53.82-1.26.82-2.06s-.32-1.53-.82-2.06z"/><path d="m35 15c0 .8-.31 1.53-.82 2.06-.55.58-1.32.94-2.18.94s-1.63-.36-2.18-.94c-.5-.53-.82-1.26-.82-2.06s.32-1.53.82-2.06c.55-.58 1.32-.94 2.18-.94s1.63.36 2.18.94c.5.53.82 1.26.82 2.06z"/><circle cx="33" cy="36" r="2"/></g><path d="m56.196 6.02-14.333-2.867c-.368-1.24-1.505-2.153-2.863-2.153h-14c-1.358 0-2.495.913-2.863 2.153l-14.333 2.867c-1.562.103-2.804 1.393-2.804 2.98v20c0 1.302.839 2.402 2 2.816v25.184h.009c.098 3.324 2.826 6 6.173 6h37.635c3.348 0 6.076-2.676 6.173-6h.01v-25.184c1.161-.414 2-1.514 2-2.816v-20c0-1.587-1.242-2.877-2.804-2.98zm.804 2.98v1h-2v-.586l1.351-1.351c.378.143.649.509.649.937zm-50 19h2v.586l-1.351 1.351c-.378-.143-.649-.509-.649-.937zm2-14h-2v-2h2zm0 2v2h-2v-2zm0 4v2h-2v-2zm0 4v2h-2v-2zm2 5.414v-20.828l-.972-.972 11.972-2.394v4.059l-1.271-.424-.437.438c-.093.094-2.292 2.332-2.292 5.707s2.199 5.613 2.293 5.707l.437.438 2.312-.771 7.275 6.467-4.317 3.699v14.196l2.626.815-17.275 5.361c-.902.281-1.692.758-2.351 1.363v-20.861zm31.673-18.251c.503.674 1.327 2.052 1.327 3.837 0 1.768-.828 3.156-1.331 3.836l-6.97-2.323c.191-.468.301-.977.301-1.513s-.11-1.045-.301-1.512zm-10.825 14.365-6.619-5.883 4.377-1.459c.67.504 1.493.814 2.394.814s1.724-.31 2.394-.815l4.335 1.445zm2.152-10.528c0 1.103-.897 2-2 2s-2-.897-2-2 .897-2 2-2 2 .897 2 2zm-5.699 1.512-6.974 2.324c-.503-.673-1.327-2.051-1.327-3.836 0-1.768.828-3.156 1.331-3.836l6.97 2.323c-.191.468-.301.977-.301 1.513s.11 1.045.301 1.512zm-.301 26.752v-11.804l12.94-11.092 2.33.777.437-.438c.094-.094 2.293-2.332 2.293-5.707s-2.199-5.613-2.293-5.707l-.437-.438-1.27.424v-4.059l11.972 2.394-.972.972v20.828l2 2v20.861c-.659-.605-1.448-1.082-2.35-1.362zm27-19.264h2v2h-2zm0-2v-2h2v2zm0-4v-2h2v2zm0-4v-2h2v2zm-30-11h14c.552 0 1 .448 1 1v5.946l-5.606 1.869c-.67-.505-1.493-.815-2.394-.815s-1.724.31-2.394.815l-5.606-1.869v-5.946c0-.552.448-1 1-1zm-17.351 5.063 1.351 1.351v.586h-2v-1c0-.428.271-.794.649-.937zm43.168 52.937h-37.634c-2.307 0-4.183-1.876-4.183-4.183 0-1.843 1.183-3.448 2.943-3.994l20.056-6.225 20.059 6.225c1.759.546 2.942 2.152 2.942 3.994 0 2.307-1.876 4.183-4.183 4.183zm5.534-31.063-1.351-1.351v-.586h2v1c0 .428-.271.794-.649.937z"/><path d="m33 33c-1.654 0-3 1.346-3 3s1.346 3 3 3 3-1.346 3-3-1.346-3-3-3zm0 4c-.552 0-1-.448-1-1s.448-1 1-1 1 .448 1 1-.448 1-1 1z"/></svg>