<svg id="Capa_1" enable-background="new 0 0 512 512" height="512" viewBox="0 0 512 512" width="512" xmlns="http://www.w3.org/2000/svg"><g id="filled_outline"><path d="m224 392c5.299-15.896 13.125-30.834 23.179-44.239l8.821-11.761 8.821 11.761c10.054 13.405 17.88 28.343 23.179 44.239l-32 58z" fill="#02a437"/><path d="m296 374.037c27.593 22.091 32.053 62.367 9.962 89.96s-62.367 32.053-89.96 9.962-32.053-62.367-9.962-89.96c2.307-2.881 4.859-5.558 7.627-7.999l.537.49c17.061 15.549 31.214 34.014 41.796 54.529l3.906-7.574c8.026-15.558 18.117-29.961 30-42.817z" fill="#f7ba61"/><path d="m395.082 57.924-22.455 47.541c-13.013 27.551-11.396 59.784 4.31 85.894 10.945 18.195 32.304 27.346 53.027 22.717 20.723-4.629 36.158-22 38.32-43.123 3.102-30.311-9.151-60.168-32.651-79.562z" fill="#c38325"/><g fill="#97661d"><path d="m422.98 190.847c-3.744-.004-6.985-2.604-7.8-6.258l-15.7-70.268c-.963-4.312 1.752-8.589 6.064-9.552s8.589 1.752 9.552 6.064l15.704 70.267c.96 4.317-1.76 8.594-6.077 9.555-.571.127-1.154.191-1.739.191z"/><path d="m396.069 180.464c-3.744-.004-6.984-2.603-7.8-6.257l-6.977-31.23c-.963-4.312 1.751-8.589 6.063-9.552s8.589 1.751 9.552 6.063l6.977 31.23c.96 4.317-1.76 8.594-6.077 9.555-.571.127-1.154.191-1.739.191z"/><path d="m442.915 170c-3.744-.004-6.985-2.604-7.8-6.258l-6.976-31.23c-.963-4.312 1.751-8.589 6.063-9.552s8.589 1.751 9.552 6.063l6.976 31.231c.961 4.316-1.759 8.594-6.075 9.555-.571.127-1.155.191-1.74.191z"/></g><path d="m247.647 192.416c-16.641 0-32.6 6.61-44.367 18.377l-5.481 5.481c-7.732 7.733-7.731 20.27.002 28.001.662.662 1.37 1.276 2.119 1.838 7.882 5.911 18.912 5.127 25.879-1.839l5.589-5.589c4.014-4.014 9.458-6.269 15.135-6.269 4.631 0 9.137 1.502 12.842 4.28l10.453 7.84c8.748 6.561 21.158 4.788 27.719-3.959 6.754-9.006 5.136-21.748-3.654-28.781l-7.039-5.631c-11.126-8.9-24.949-13.749-39.197-13.749z" fill="#ffc864"/><path d="m301.7 228.09c.001 1.017-.072 2.033-.22 3.04-.73-5.254-3.451-10.026-7.6-13.33l-7.04-5.63c-24.964-19.971-60.95-17.981-83.56 4.62l-5.48 5.48c-2.983 2.97-4.935 6.819-5.57 10.98-.963-6.225 1.107-12.535 5.57-16.98l5.48-5.48c22.61-22.601 58.596-24.59 83.56-4.62l7.04 5.63c4.952 3.955 7.831 9.952 7.82 16.29z" fill="#fbb540"/><path d="m420.744 319.549c13.386-9.889 22.295-24.691 24.767-41.149l1.152-7.664c1.622-10.814-5.83-20.896-16.645-22.518-.924-.139-1.857-.212-2.792-.218-9.854-.073-18.263 7.112-19.727 16.857l-1.174 7.816c-.844 5.613-3.883 10.662-8.448 14.035-3.725 2.752-8.241 4.221-12.872 4.188l-13.066-.1c-10.935-.078-19.862 8.724-19.94 19.659v.001c-.082 11.257 8.79 20.545 20.039 20.978l9.008.346c14.238.549 28.238-3.765 39.698-12.231z" fill="#fbb540"/><path d="m312 103.918v-.306c.001-14.853-5.898-29.097-16.4-39.6l-39.6-39.596-39.6 39.6c-10.502 10.503-16.401 24.747-16.4 39.6v.306c0 20.096 10.768 38.651 28.216 48.621 17.216 9.838 38.352 9.838 55.568 0 17.449-9.971 28.217-28.528 28.216-48.625z" fill="#683b0d"/><path d="m280.26 60.71-9.03-21.06-15.23-15.23-15.23 15.23-9.03 21.06c-5.123 11.911-7.756 24.744-7.74 37.71.037 21.212 7.082 41.816 20.04 58.61l1.46 1.89c6.937 1.333 14.063 1.333 21 0l1.47-1.89c12.951-16.797 19.992-37.4 20.03-58.61.016-12.966-2.617-25.799-7.74-37.71zm-24.26 85.6c-10.356-13.821-15.968-30.619-16-47.89-.013-10.797 2.182-21.482 6.45-31.4l9.55-22.29 9.55 22.29c4.268 9.918 6.463 20.603 6.45 31.4-.032 17.271-5.644 34.069-16 47.89z" fill="#683b0d"/><path d="m280.26 60.71-9.03-21.06-15.23-15.23-15.23 15.23-9.03 21.06c-5.123 11.911-7.756 24.744-7.74 37.71.037 21.212 7.082 41.816 20.04 58.61l1.46 1.89c6.937 1.333 14.063 1.333 21 0l1.47-1.89c12.951-16.797 19.992-37.4 20.03-58.61.016-12.966-2.617-25.799-7.74-37.71zm-24.26 85.6c-10.356-13.821-15.968-30.619-16-47.89-.013-10.797 2.182-21.482 6.45-31.4l9.55-22.29 9.55 22.29c4.268 9.918 6.463 20.603 6.45 31.4-.032 17.271-5.644 34.069-16 47.89z" fill="#533222"/><path d="m144 244.844-12.507 16.676c-7.46 9.947-11.493 22.046-11.493 34.48 0 8.024 4.01 15.518 10.687 19.969 8.062 5.375 18.564 5.375 26.626 0 6.677-4.451 10.687-11.945 10.687-19.969 0-12.434-4.033-24.533-11.493-34.48z" fill="#89b140"/><path d="m168 296c0 13.255-10.745 24-24 24-1.527.003-3.051-.144-4.55-.44 11.286-2.184 19.439-12.064 19.44-23.56-.001-12.435-4.036-24.534-11.5-34.48l-7.95-10.6 4.56-6.08 12.51 16.68c7.455 9.95 11.487 22.047 11.49 34.48z" fill="#aac16b"/><path d="m96 231.944-8.629-10.892c-5.148-6.497-12.264-11.15-20.28-13.26-5.173-1.362-10.685-.049-14.688 3.5-4.832 4.286-6.614 11.056-4.517 17.165 1.737 5.06 5.888 8.917 11.061 10.278 8.017 2.109 16.501 1.562 24.18-1.561z" fill="#02a437"/><path d="m272 280.3 4.166 13.257c2.485 7.908 7.467 14.797 14.2 19.633 4.345 3.121 9.963 3.864 14.97 1.979 6.045-2.275 10.129-7.962 10.354-14.417.186-5.346-2.312-10.432-6.657-13.553-6.733-4.836-14.852-7.357-23.14-7.186z" fill="#683b0d"/><path d="m144 168-2.948-20.635c-1.758-12.309-7.46-23.716-16.252-32.508-5.674-5.674-13.809-8.137-21.677-6.563-9.501 1.9-16.927 9.326-18.827 18.827-1.575 7.869.887 16.004 6.561 21.679 8.792 8.792 20.199 14.496 32.508 16.254z" fill="#fbb540"/><path d="m141.008 370.307c-3.804-6.801-9.968-11.972-17.327-14.536l-3.349-5.97c-5.404-9.634-17.594-13.062-27.228-7.658s-13.062 17.594-7.658 27.228c-5.459-9.603-17.669-12.962-27.271-7.503-9.525 5.415-12.92 17.486-7.614 27.073l3.349 5.971c-3.39 15.76 5.484 31.578 20.7 36.9l3.349 5.97c5.349 9.664 17.52 13.162 27.184 7.813s13.162-17.52 7.813-27.184c-.037-.066-.074-.133-.112-.199 5.404 9.634 17.594 13.062 27.228 7.658 9.633-5.404 13.062-17.594 7.658-27.228l-3.349-5.97c1.648-7.617.448-15.573-3.373-22.365z" fill="#ea9d2d"/><path d="m106.973 415.746 3.914 6.977" fill="none"/><path d="m445.225 395.607c-5.685-9.347-8.295-20.242-7.462-31.15.104-1.178.23-2.355.378-3.53l.333-2.65-1.857 1.92c-.825.852-1.665 1.688-2.519 2.509-7.893 7.47-17.948 12.252-28.724 13.661-21.886 3.003-37.194 23.18-34.191 45.066s23.18 37.194 45.066 34.191 37.194-23.18 34.191-45.066c-.725-5.281-2.498-10.364-5.215-14.951z" fill="#533222"/><path d="m396.682 434.962c-4.366.001-7.927-3.5-8-7.866-.198-13.77 6.065-26.838 16.922-35.31 3.508-2.686 8.529-2.02 11.215 1.488 2.661 3.474 2.036 8.442-1.402 11.149-6.888 5.375-10.861 13.664-10.737 22.4.074 4.418-3.447 8.059-7.865 8.133h-.001z" fill="#683b0d"/><path d="m255.956 496c1.14 0 2.287-.026 3.434-.079 39.72-1.875 70.4-35.595 68.525-75.315-.975-20.65-10.778-39.884-26.915-52.806-3.277-2.627-8.027-2.273-10.878.811l-2.054 2.222c-4.678-9.825-10.323-19.16-16.851-27.867l-8.817-11.766c-2.651-3.535-7.665-4.251-11.2-1.6-.606.455-1.145.994-1.6 1.6l-8.822 11.761c-7.115 9.498-13.177 19.74-18.08 30.547-1.031-.98-2.05-1.97-3.1-2.93l-.537-.49c-3.018-2.754-7.625-2.792-10.688-.088-29.823 26.302-32.678 71.8-6.376 101.624 13.658 15.487 33.309 24.364 53.959 24.376zm-2.377-143.439 2.421-3.228 2.421 3.228c7.257 9.687 13.297 20.228 17.986 31.386-7.792 9.463-14.709 19.614-20.664 30.328-6.15-10.033-13.17-19.507-20.977-28.312 4.794-11.903 11.118-23.131 18.813-33.401zm-39.743 34.587c14.147 13.873 25.982 29.922 35.055 47.537 2.026 3.926 6.851 5.467 10.778 3.441 1.477-.762 2.679-1.965 3.441-3.441l3.907-7.573c7.695-14.918 17.37-28.728 28.764-41.054l.707-.766c10.694 11.098 16.288 26.145 15.443 41.534-1.621 28.698-24.575 51.58-53.277 53.111-30.893 1.465-57.125-22.392-58.59-53.285-.685-14.453 4.25-28.61 13.772-39.504z"/><path d="m419.16 223.271c29.415.003 54.068-22.24 57.082-51.5 3.411-32.978-9.924-65.472-35.517-86.547l-40.551-33.47c-3.408-2.812-8.45-2.329-11.262 1.079-.422.512-.779 1.074-1.063 1.675l-22.455 47.541c-14.191 29.962-12.431 65.042 4.688 93.433 10.345 17.238 28.974 27.786 49.078 27.789zm-39.3-114.389 18.063-38.24 32.618 26.919c21.461 17.674 32.644 44.923 29.785 72.578-2.321 22.708-22.611 39.234-45.318 36.913-12.944-1.323-24.509-8.664-31.215-19.813-14.358-23.81-15.835-53.229-3.933-78.357z"/><path d="m415.181 184.589c.963 4.313 5.241 7.028 9.554 6.065s7.028-5.241 6.065-9.554l-15.7-70.268c-.963-4.312-5.24-7.027-9.552-6.064s-7.027 5.24-6.064 9.552z"/><path d="m396.069 180.464c4.422 0 8.007-3.585 8.007-8.007 0-.585-.064-1.168-.191-1.739l-6.977-31.23c-.963-4.312-5.24-7.026-9.552-6.063s-7.026 5.24-6.063 9.552l6.977 31.23c.816 3.653 4.056 6.253 7.799 6.257z"/><path d="m435.115 163.742c.943 4.317 5.206 7.052 9.522 6.109 4.317-.943 7.052-5.206 6.109-9.522-.005-.025-.011-.05-.017-.075l-6.976-31.231c-.963-4.312-5.24-7.026-9.552-6.063s-7.026 5.24-6.063 9.552z"/><path d="m195.12 252.513c11.085 8.242 26.529 7.144 36.337-2.583l5.589-5.589c2.508-2.521 5.92-3.935 9.476-3.925 2.899.006 5.72.946 8.043 2.68l10.453 7.84c12.287 9.195 29.699 6.707 38.92-5.56 9.417-12.444 7.171-30.131-5.057-39.827l-7.039-5.631c-12.555-10.017-28.134-15.481-44.195-15.5-18.773-.051-36.787 7.41-50.025 20.721l-5.478 5.479c-10.858 10.855-10.86 28.457-.004 39.315.931.931 1.927 1.795 2.98 2.585zm8.337-30.583 5.479-5.48c10.244-10.3 24.184-16.074 38.711-16.034 12.429.016 24.486 4.247 34.2 12l7.04 5.631c5.444 4.317 6.444 12.192 2.252 17.733-3.914 5.206-11.304 6.262-16.52 2.36l-10.453-7.84c-5.096-3.805-11.283-5.867-17.643-5.88-7.802-.021-15.289 3.08-20.791 8.612l-5.587 5.588c-4.163 4.129-10.718 4.597-15.424 1.1-5.213-3.911-6.269-11.307-2.358-16.52.335-.446.701-.868 1.095-1.263z"/><path d="m371.732 339.428 9.008.346c.9.035 1.793.052 2.691.052 15.14-.013 29.88-4.862 42.069-13.842 15.13-11.113 25.185-27.818 27.924-46.39l1.151-7.664c2.281-15.183-8.178-29.341-23.361-31.622-1.301-.196-2.615-.298-3.93-.308h-.2c-13.737.058-25.393 10.094-27.492 23.669l-1.174 7.815c-.519 3.519-2.424 6.683-5.29 8.789-2.31 1.698-5.1 2.617-7.967 2.623h-.1l-13.061-.096h-.2c-15.269.016-27.673 12.332-27.8 27.6-.18 15.604 12.136 28.496 27.732 29.028zm.068-40.628h.087l13.065.1h.209c6.289-.013 12.41-2.028 17.476-5.753 6.289-4.619 10.468-11.562 11.606-19.282l1.174-7.815c.889-5.763 5.836-10.024 11.667-10.05h.085c6.517.048 11.761 5.37 11.713 11.887-.004.558-.048 1.115-.131 1.666l-1.151 7.664c-4.146 27.585-28.37 47.642-56.245 46.569l-9.007-.347c-6.945-.236-12.429-5.977-12.348-12.925.054-6.481 5.319-11.708 11.8-11.714z"/><path d="m250.245 18.869-39.5 39.488c-12.042 11.976-18.791 28.272-18.745 45.255v.305c.028 22.959 12.327 44.152 32.247 55.568 30.689 17.537 69.784 6.875 87.321-23.814 5.525-9.671 8.432-20.616 8.432-31.754v-.305c.046-16.983-6.703-33.279-18.745-45.255l-39.497-39.497c-3.361-3.309-7.979-3.316-11.513.009zm-3.798 48.146 9.553-22.29 9.553 22.29c4.266 9.921 6.46 20.61 6.447 31.409-.034 17.268-5.646 34.064-16 47.884-10.354-13.821-15.966-30.616-16-47.885-.012-10.799 2.181-21.487 6.447-31.408zm57.553 36.597v.305c-.021 17.22-9.245 33.115-24.185 41.676-1.918 1.093-3.91 2.05-5.962 2.865 9.216-15.065 14.11-32.375 14.147-50.035.015-12.966-2.619-25.799-7.74-37.711l-.542-1.264 10.222 10.222c9.032 8.982 14.095 21.204 14.06 33.942zm-96 0c-.035-12.738 5.028-24.96 14.06-33.942l10.222-10.222-.542 1.264c-5.121 11.912-7.755 24.745-7.74 37.712.037 17.66 4.931 34.97 14.148 50.035-2.052-.816-4.044-1.773-5.963-2.866-14.94-8.561-24.164-24.456-24.185-41.676z"/><path d="m144 236.844c-2.518 0-4.889 1.186-6.4 3.2l-12.507 16.676c-8.473 11.346-13.064 25.12-13.093 39.28 0 17.673 14.327 32 32 32s32-14.327 32-32c-.029-14.16-4.62-27.934-13.093-39.28l-12.507-16.676c-1.511-2.014-3.882-3.2-6.4-3.2zm8.875 72.469c-7.353 4.902-17.286 2.915-22.188-4.438-1.752-2.628-2.687-5.716-2.687-8.875.022-10.7 3.492-21.107 9.894-29.68l6.106-8.142 6.106 8.142c6.402 8.573 9.872 18.98 9.894 29.68.005 5.351-2.67 10.349-7.125 13.313z"/><path d="m56.911 246.476c9.693 2.53 19.943 1.868 29.23-1.887l12.873-5.234c4.093-1.665 6.061-6.332 4.397-10.424-.285-.702-.669-1.36-1.14-1.954l-8.629-10.893c-6.237-7.839-14.833-13.459-24.515-16.029-12.819-3.373-25.945 4.284-29.319 17.103-3.373 12.818 4.284 25.945 17.103 29.318zm.8-29.2c1.46-1.299 3.346-2.016 5.3-2.016.689 0 1.375.089 2.042.264 6.338 1.683 11.965 5.364 16.047 10.496l2 2.531-2.992 1.217c-6.077 2.455-12.783 2.887-19.125 1.232-4.273-1.125-6.824-5.5-5.7-9.773.402-1.527 1.247-2.901 2.429-3.949z"/><path d="m313.7 280.7c-8.148-5.826-17.956-8.872-27.971-8.686l-13.894.287c-4.417.091-7.925 3.745-7.834 8.162.016.76.139 1.513.367 2.238l4.166 13.257c3.024 9.547 9.043 17.867 17.166 23.725 10.747 7.758 25.749 5.336 33.507-5.411s5.336-25.749-5.411-33.507c-.032-.023-.064-.046-.096-.069zm-11.181 26.981c-2.504.945-5.314.573-7.486-.989-5.317-3.837-9.256-9.286-11.233-15.538l-.968-3.081 3.229-.067c6.555-.118 12.974 1.875 18.308 5.686 3.589 2.577 4.409 7.576 1.831 11.164-.921 1.283-2.201 2.264-3.679 2.82z"/><path d="m122.234 172.972 20.635 2.947c.375.054.753.081 1.131.081 4.418 0 8-3.581 8-8 0-.379-.027-.757-.08-1.131l-2.948-20.635c-2.031-14.014-8.525-27-18.517-37.034-12.497-12.497-32.758-12.497-45.255 0s-12.497 32.758 0 45.255c10.034 9.992 23.02 16.485 37.034 18.517zm-30.095-44.283c1.735-8.665 10.165-14.282 18.83-12.548 3.095.62 5.938 2.141 8.17 4.373 7.55 7.582 12.456 17.394 13.99 27.983l1.439 10.075-10.068-1.439c-10.589-1.536-20.401-6.442-27.982-13.992-3.789-3.779-5.434-9.205-4.379-14.452z"/><path d="m446.078 361.924.333-2.65c.55-4.384-2.558-8.384-6.942-8.934-2.497-.313-4.996.566-6.745 2.375l-1.857 1.919c-.757.782-1.527 1.549-2.308 2.3-6.667 6.315-15.17 10.345-24.279 11.508-26.263 3.607-44.63 27.821-41.023 54.084s27.821 44.63 54.084 41.023 44.63-27.821 41.023-54.084c-.87-6.334-2.996-12.43-6.254-17.931-4.841-7.903-7.073-17.129-6.379-26.371.096-1.079.21-2.157.347-3.239zm-6.407 67.9c-7.641 15.94-26.757 22.667-42.697 15.025-.687-.329-1.362-.683-2.023-1.06-15.348-8.762-20.688-28.307-11.926-43.655 4.929-8.635 13.593-14.488 23.443-15.839 8.355-1.116 16.384-3.97 23.57-8.377 1.117 8.405 3.941 16.492 8.3 23.764 5.455 9.192 5.955 20.502 1.333 30.139z"/><path d="m405.608 391.786c-10.857 8.472-17.12 21.54-16.922 35.31.073 4.366 3.634 7.867 8 7.866h.136c4.418-.073 7.939-3.714 7.866-8.132v-.001c-.124-8.736 3.849-17.025 10.737-22.4 3.471-2.733 4.07-7.763 1.336-11.235-2.707-3.438-7.675-4.063-11.149-1.402z"/><path d="m154.707 394.727-1.962-3.5c1.145-8.576-.525-17.291-4.759-24.836-4.231-7.547-10.799-13.515-18.714-17.008l-1.961-3.5c-7.558-13.484-24.615-18.288-38.099-10.73-6.57 3.683-11.379 9.858-13.339 17.13l-.288-.083c-14.886-4.186-30.348 4.488-34.535 19.374-2.01 7.149-1.099 14.803 2.535 21.28l1.962 3.5c-2.349 17.616 7.216 34.667 23.473 41.846l1.961 3.5c3.618 6.49 9.682 11.263 16.84 13.256 7.147 2.029 14.809 1.116 21.28-2.534 6.49-3.618 11.262-9.682 13.255-16.84.026-.092.051-.183.076-.275.091.027.183.053.275.078 14.887 4.186 30.348-4.488 34.534-19.375 2.01-7.148 1.098-14.802-2.534-21.278zm-12.867 16.948c-1.794 6.38-8.42 10.098-14.8 8.304-3.064-.862-5.66-2.905-7.218-5.682-2.162-3.854-7.038-5.225-10.892-3.064-3.854 2.162-5.225 7.038-3.063 10.892 3.275 5.762 1.26 13.087-4.502 16.363-5.762 3.275-13.087 1.26-16.363-4.502-.022-.04-.045-.079-.067-.119l-3.35-5.97c-.953-1.699-2.494-2.992-4.333-3.636-11.41-3.99-18.064-15.852-15.522-27.669.409-1.905.109-3.893-.844-5.592l-3.349-5.97c-3.241-5.786-1.178-13.104 4.609-16.345 1.784-.999 3.794-1.526 5.838-1.531 1.105.001 2.204.153 3.267.453 3.068.855 5.666 2.9 7.217 5.682l5.87 10.463c2.162 3.855 7.04 5.228 10.895 3.066s5.228-7.04 3.066-10.895l-5.872-10.468c-3.189-5.809-1.065-13.105 4.744-16.294 5.735-3.149 12.936-1.123 16.188 4.555l3.35 5.97c.953 1.699 2.494 2.992 4.333 3.636 11.41 3.99 18.064 15.852 15.522 27.669-.411 1.907-.111 3.899.844 5.6l3.349 5.97c1.563 2.772 1.953 6.053 1.083 9.114z"/></g></svg>