<svg id="Filled" height="512" viewBox="0 0 512 512" width="512" xmlns="http://www.w3.org/2000/svg"><path d="m304 72h-256l-24 80v304 32h304v-336z" fill="#ffb632"/><path d="m24 456h304v32h-304z" fill="#eb423f"/><path d="m48 24h256v48h-256z" fill="#eb423f"/><g fill="#ad6643"><ellipse cx="144.005" cy="232.005" rx="16" ry="24"/><ellipse cx="96.003" cy="272.008" rx="16" ry="23.999"/><ellipse cx="208.003" cy="232.003" rx="16" ry="23.999"/><path d="m220.005 312.011a31.664 31.664 0 0 0 -12.933 2.715 24.72 24.72 0 0 0 .933-6.715c0-15.464-14.327-28-32-28s-32 12.536-32 28a24.759 24.759 0 0 0 .933 6.715 31.66 31.66 0 0 0 -12.933-2.715c-15.464 0-28 10.745-28 24s12.536 24 28 24 28-10.745 28-24a20.816 20.816 0 0 0 -.383-3.949 35.96 35.96 0 0 0 32.767 0 20.816 20.816 0 0 0 -.384 3.949c0 13.255 12.536 24 28 24s28-10.745 28-24-12.536-24-28-24z"/><ellipse cx="256.003" cy="272.008" rx="16" ry="23.999"/></g><path d="m200 456h272a16 16 0 0 1 16 16v16a0 0 0 0 1 0 0h-304a0 0 0 0 1 0 0v-16a16 16 0 0 1 16-16z" fill="#596063"/><path d="m472 456h-272l22.106-49.413c3.894-8.711 14.838-14.587 27.162-14.587h173.464c12.324 0 23.265 5.876 27.162 14.587z" fill="#7e8589"/><path d="m120.005 232.005c0 17.944 10.542 32 24 32s24-14.056 24-32-10.542-32-24-32-24 14.056-24 32zm32 0c0 9.766-4.738 16-8 16s-8-6.234-8-16 4.739-16 8-16 8 6.233 8 16z"/><path d="m91.444 303.445a19.054 19.054 0 0 0 4.622.576 20.018 20.018 0 0 0 13.173-5.182c10.152-8.791 13.7-27.11 8.086-41.7-3.349-8.7-9.459-14.739-16.763-16.564-6.243-1.561-12.565.076-17.8 4.606-10.151 8.792-13.7 27.11-8.084 41.705 3.352 8.697 9.462 14.734 16.766 16.559zm1.8-46.173a4.284 4.284 0 0 1 2.764-1.272 2.671 2.671 0 0 1 .676.09c1.656.414 4.025 2.415 5.709 6.789 3.525 9.157.918 19.925-3.628 23.861-1.826 1.582-3.042 1.279-3.443 1.178-1.656-.413-4.026-2.414-5.71-6.788-3.525-9.154-.912-19.922 3.627-23.858z"/><path d="m221.24 205.171c-5.232-4.53-11.551-6.165-17.8-4.606-7.3 1.826-13.414 7.863-16.763 16.564-5.619 14.6-2.067 32.913 8.085 41.705a20.022 20.022 0 0 0 13.173 5.182 19.008 19.008 0 0 0 4.623-.577c7.3-1.825 13.414-7.862 16.763-16.563 5.621-14.594 2.07-32.913-8.081-41.705zm-6.847 35.957c-1.684 4.374-4.053 6.375-5.709 6.789-.4.1-1.618.4-3.444-1.179-4.545-3.935-7.153-14.7-3.628-23.861 1.684-4.374 4.054-6.375 5.71-6.788a2.613 2.613 0 0 1 .678-.089 4.277 4.277 0 0 1 2.768 1.268c4.542 3.932 7.15 14.703 3.625 23.86z"/><path d="m24 496h464a8 8 0 0 0 8-8v-16a24.037 24.037 0 0 0 -18.53-23.364l-20.27-45.316c-5.17-11.556-19.02-19.32-34.465-19.32h-86.735v-232a8.031 8.031 0 0 0 -.337-2.3l-23.663-78.874v-46.826a8 8 0 0 0 -8-8h-256a8 8 0 0 0 -8 8v46.826l-23.663 78.874a8.031 8.031 0 0 0 -.337 2.3v336a8 8 0 0 0 8 8zm456-24v8h-288v-8a8.009 8.009 0 0 1 8-8h272a8.009 8.009 0 0 1 8 8zm-57.268-72c9.1 0 17.264 4.052 19.859 9.854l17.066 38.146h-247.314l17.066-38.146c2.591-5.802 10.761-9.854 19.859-9.854zm-366.732-368h240v32h-240zm-24 128h40a8 8 0 0 0 0-16h-37.248l19.2-64h244.1l19.2 64h-29.252a8 8 0 0 0 0 16h32v224h-70.732c-15.445 0-29.295 7.764-34.465 19.32l-19.988 44.68h-162.815zm0 304h145.376a23.889 23.889 0 0 0 -1.376 8v8h-144z"/><path d="m104 160h152a8 8 0 0 0 0-16h-152a8 8 0 0 0 0 16z"/><path d="m256.005 336.011c0-17.645-16.149-32-36-32a41.21 41.21 0 0 0 -4.219.215c-2.109-18.079-19.145-32.215-39.781-32.215s-37.672 14.136-39.78 32.215a41.23 41.23 0 0 0 -4.22-.215c-19.85 0-36 14.355-36 32s16.15 32 36 32c17.107 0 31.464-10.659 35.107-24.9a44.757 44.757 0 0 0 17.787 0c3.643 14.24 18 24.9 35.106 24.9 19.851 0 36-14.356 36-32zm-56 0a12.776 12.776 0 0 1 .239-2.43 8 8 0 0 0 -11.56-8.608 27.975 27.975 0 0 1 -25.357 0 8 8 0 0 0 -11.56 8.608 12.855 12.855 0 0 1 .238 2.43c0 8.822-8.972 16-20 16s-20-7.178-20-16 8.973-16 20-16a23.856 23.856 0 0 1 9.667 2.017 8 8 0 0 0 10.967-9.471 16.789 16.789 0 0 1 -.634-4.546c0-11.029 10.766-20 24-20s24 8.971 24 20a16.829 16.829 0 0 1 -.633 4.548 8 8 0 0 0 10.966 9.469 23.863 23.863 0 0 1 9.667-2.017c11.028 0 20 7.177 20 16s-8.972 16-20 16-20-7.178-20-16z"/><path d="m251.443 240.571c-7.3 1.825-13.413 7.863-16.762 16.564-5.618 14.594-2.067 32.913 8.084 41.7a20.02 20.02 0 0 0 13.174 5.183 19.062 19.062 0 0 0 4.623-.576c7.3-1.825 13.414-7.862 16.763-16.563 5.618-14.6 2.066-32.914-8.085-41.705-5.232-4.528-11.552-6.165-17.797-4.603zm10.95 40.563c-1.684 4.374-4.053 6.374-5.709 6.788-.4.1-1.618.4-3.444-1.179-4.545-3.935-7.153-14.7-3.627-23.86 1.683-4.374 4.053-6.375 5.709-6.789a2.661 2.661 0 0 1 .678-.094 4.282 4.282 0 0 1 2.769 1.268c4.542 3.94 7.149 14.708 3.624 23.866z"/><path d="m120 416h-32a8 8 0 0 0 0 16h32a8 8 0 0 0 0-16z"/><circle cx="56" cy="424" r="8"/></svg>