<svg id="Capa_1" enable-background="new 0 0 512.003 512.003" height="512" viewBox="0 0 512.003 512.003" width="512" xmlns="http://www.w3.org/2000/svg"><g><g><path d="m345.817 31.026c-37.076 0-110.825 94.811-110.825 94.811h110.825 110.825c0-.001-72.06-94.811-110.825-94.811z" fill="#c86f5c"/><path d="m456.644 125.834h-45s-49.088-64.582-88.029-87.14c8.134-4.776 15.727-7.668 22.198-7.668 38.772.001 110.831 94.808 110.831 94.808z" fill="#ba5d4f"/><g><g><path d="m137.047 177.327h-25.215l-3.332-46.163c-.668-9.255 6.66-17.132 15.94-17.132 9.279 0 16.608 7.877 15.94 17.132z" fill="#ec462e"/><path d="m140.423 130.005c0 .38-.01.77-.04 1.16l-3.34 46.16h-15.98l3.33-46.16c.03-.39.04-.79.04-1.17 0-5.87-3.19-11.05-7.98-13.82 2.34-1.36 5.07-2.14 7.99-2.14 8.89 0 15.98 7.22 15.98 15.97z" fill="#d53e2d"/></g><path d="m150.037 235.121h-51.196v-50.034c0-5.579 4.523-10.102 10.102-10.102h30.993c5.579 0 10.102 4.523 10.102 10.102v50.034z" fill="#fb5532"/><path d="m150.033 185.085v50.04h-20.64v-50.04c0-5.58-4.53-10.1-10.1-10.1h20.64c5.58 0 10.1 4.52 10.1 10.1z" fill="#ec462e"/></g><g><path d="m504.5 464.977c-.121-6.605-4.478-12.113-10.384-14.345-9.256-3.499-14.895-12.991-14.227-22.864 3.913-57.819-11.677-245.868-14.906-290.619h-238.332c-3.228 44.751-18.819 232.8-14.906 290.619.668 9.873-4.971 19.365-14.227 22.864-5.906 2.233-10.264 7.74-10.384 14.345-.161 8.809 6.932 16.001 15.704 16.001h285.958c8.772 0 15.865-7.192 15.704-16.001z" fill="#fee7c9"/><g><circle cx="343.143" cy="309.063" fill="#2db181" r="77.573"/><path d="m420.713 309.065c0 42.84-34.73 77.57-77.57 77.57-11.61 0-22.62-2.55-32.51-7.13 42.65-.21 77.16-34.86 77.16-77.57 0-31.22-18.45-58.14-45.04-70.43.13-.01.26-.01.39-.01 42.84 0 77.57 34.73 77.57 77.57z" fill="#1ca56f"/></g><path d="m504.499 464.971c.159 8.814-6.932 16.011-15.706 16.011h-38.808c8.761 0 15.865-7.197 15.693-16.011-.119-6.601-4.467-12.114-10.378-14.341-9.251-3.499-14.898-12.989-14.222-22.863 1.882-27.794-.742-187.599-4.334-213.378-1.697-12.207-12.167-21.26-24.494-21.26h-189.826c1.842-24.745 3.42-44.812 4.228-55.985h238.336c3.221 44.759 18.821 232.809 14.898 290.623-.663 9.874 4.97 19.364 14.235 22.863 5.898 2.24 10.258 7.74 10.378 14.341z" fill="#ffd597"/><g><path d="m468.835 167.003h-246.036c-7.32 0-13.254-5.934-13.254-13.254v-19.857c0-7.32 5.934-13.254 13.254-13.254h246.036c7.32 0 13.254 5.934 13.254 13.254v19.857c0 7.32-5.934 13.254-13.254 13.254z" fill="#fcc16d"/><path d="m482.092 133.898v19.855c0 7.316-5.938 13.254-13.254 13.254h-38.808c7.316 0 13.254-5.938 13.254-13.254v-19.855c0-7.329-5.938-13.254-13.254-13.254h38.808c7.316 0 13.254 5.925 13.254 13.254z" fill="#fcb44d"/></g></g><g><path d="m50.332 271.038s15.359-61.457 75.087-59.945 55.462-19.391 93.859-19.391 44.737 79.336 44.737 79.336z" fill="#fca62f"/><path d="m264.013 271.038h-32.729s-5-62.537-32.992-76.56c5.606-1.677 12.172-2.782 20.991-2.782 38.396 0 44.73 79.342 44.73 79.342z" fill="#fb9927"/></g><g><path d="m310.218 465.716c-.115-6.3-4.272-11.554-9.905-13.683-8.829-3.337-14.207-12.391-13.57-21.808 3.733-55.149-11.138-108.094-14.217-150.779h-227.329c-3.079 42.685-17.95 95.63-14.217 150.779.637 9.417-4.741 18.471-13.57 21.808-5.633 2.129-9.79 7.383-9.905 13.683-.154 8.403 6.612 15.262 14.979 15.262h272.754c8.368 0 15.133-6.86 14.98-15.262z" fill="#fee7c9"/><path d="m300.311 452.034c-8.824-3.338-14.21-12.389-13.565-21.808 3.729-55.145-11.138-108.09-14.222-150.783l-227.326.003c-1.185 16.426-4.116 34.387-7.061 53.393h184.093c11.749 0 21.739 8.639 23.36 20.276 3.428 24.599 5.933 50.6 4.14 77.112-.645 9.418 4.741 18.47 13.565 21.808 5.639 2.124 9.785 7.383 9.899 13.679.164 8.407-6.612 15.272-14.968 15.272h37.016c8.369 0 15.133-6.865 14.981-15.272-.115-6.298-4.274-11.557-9.912-13.68z" fill="#ffd597"/><g><path d="m276.199 307.922h-234.675c-6.982 0-12.642-5.66-12.642-12.642v-18.94c0-6.982 5.66-12.642 12.642-12.642h234.676c6.982 0 12.642 5.66 12.642 12.642v18.94c0 6.982-5.66 12.642-12.643 12.642z" fill="#fcc16d"/><path d="m288.844 276.345v18.938c0 6.978-5.664 12.642-12.642 12.642h-37.016c6.979 0 12.642-5.664 12.642-12.642v-18.938c0-6.991-5.664-12.642-12.642-12.642h37.016c6.979 0 12.642 5.651 12.642 12.642z" fill="#fcb44d"/></g></g></g><g><path d="m496.766 443.615c-5.989-2.264-9.853-8.572-9.396-15.341.47-6.92.683-16.004.636-26.999-.018-4.132-3.372-7.468-7.499-7.468-.011 0-.022 0-.033 0-4.143.018-7.485 3.391-7.468 7.532.046 10.638-.156 19.358-.601 25.922-.901 13.309 6.937 25.804 19.057 30.385 3.304 1.249 5.479 4.181 5.538 7.467.041 2.226-.793 4.322-2.349 5.906-1.556 1.585-3.636 2.458-5.856 2.458h-172.372c.882-2.502 1.341-5.161 1.289-7.895-.161-9.163-5.948-17.234-14.744-20.563-5.576-2.109-9.171-7.984-8.742-14.289 1.217-17.959.492-35.72-1.136-52.89 14.422 10.492 31.914 16.294 50.053 16.294 46.909 0 85.073-38.163 85.073-85.072s-38.164-85.073-85.073-85.073c-26.181 0-50.404 11.733-66.657 32.222-.096-.001-.19-.014-.286-.014h-6.576c-1.939-11.688-5.415-26.966-11.53-40.451-8.244-18.179-18.425-26.337-27.625-29.614.303-4.029.597-7.917.88-11.63h228.937c3.129 41.132 9.682 128.375 11.923 191.145.145 4.049 3.472 7.232 7.49 7.232.09 0 .182-.002.272-.005 4.14-.147 7.375-3.623 7.228-7.763-2.249-63.01-8.809-150.368-11.948-191.637 8.311-2.71 14.339-10.524 14.339-19.727v-19.856c0-11.443-9.311-20.754-20.755-20.754h-12.898c-.244-.5-.542-.982-.907-1.433-7.31-9.026-18.806-22.705-32.07-36.608-2.858-2.997-7.606-3.107-10.604-.25-2.997 2.859-3.109 7.607-.25 10.604 9.447 9.902 17.975 19.691 24.67 27.688h-181.648c39.291-46.244 73.637-74.613 90.689-74.613 6.566 0 18.99 3.923 40.884 22.611 3.15 2.691 7.885 2.315 10.573-.835 2.689-3.15 2.315-7.884-.835-10.573-20.655-17.632-37.214-26.203-50.622-26.203-15.037 0-34.834 11.691-60.521 35.742-20.144 18.859-39.028 40.916-48.492 52.385-.385.466-.695.967-.949 1.486h-13.055c-11.443 0-20.754 9.311-20.754 20.754v19.856c0 9.204 6.027 17.017 14.338 19.727-.262 3.456-.535 7.065-.816 10.796-16.15.575-25.394 4.869-34.345 9.035-6.614 3.079-13.353 6.221-23.686 8.226v-16.446c0-7.867-5.19-14.544-12.325-16.791l2.648-36.552c.042-.542.063-1.111.063-1.739 0-12.941-10.533-23.47-23.48-23.47-6.501 0-12.769 2.729-17.195 7.487-4.425 4.757-6.693 11.202-6.225 17.683l2.642 36.592c-7.134 2.248-12.323 8.924-12.323 16.79v24.943c-24.749 10.914-37.774 33.081-43.578 46.168h-6.24c-11.106 0-20.142 9.035-20.142 20.142v18.94c0 8.252 4.992 15.352 12.111 18.461-.63 4.182-1.29 8.424-1.977 12.844-4.921 31.629-10.499 67.478-8.016 104.14.422 6.311-3.173 12.189-8.736 14.294-8.791 3.319-14.585 11.388-14.76 20.563-.108 6.086 2.179 11.827 6.44 16.166 4.262 4.338 9.958 6.728 16.039 6.728l466.313.003c6.279 0 12.16-2.468 16.56-6.948s6.758-10.407 6.644-16.69c-.175-9.46-6.154-17.791-15.234-21.225zm-153.624-204.625c38.639 0 70.073 31.435 70.073 70.073s-31.435 70.072-70.073 70.072c-20.166 0-39.367-8.699-52.682-23.867-1.335-9.882-2.826-19.496-4.266-28.742-.685-4.399-1.342-8.62-1.97-12.782 7.122-3.108 12.117-10.21 12.117-18.464v-18.94c0-5.365-2.122-10.234-5.554-13.848 13.308-14.992 32.123-23.502 52.355-23.502zm-126.097-105.097c0-3.173 2.581-5.754 5.754-5.754h246.036c3.173 0 5.755 2.581 5.755 5.754v19.856c0 3.173-2.582 5.754-5.755 5.754h-246.036c-3.173 0-5.754-2.581-5.754-5.754zm-98.815-9.654c1.622-1.744 3.828-2.704 6.212-2.704 4.676 0 8.48 3.8 8.48 8.47 0 .19-.003.385-.021.618l-2.671 36.862h-11.587l-2.661-36.861c-.171-2.375.627-4.643 2.248-6.385zm-11.888 60.848c0-1.435 1.167-2.602 2.602-2.602h30.992c1.435 0 2.602 1.167 2.602 2.602v18.268c-4.956.304-10.538.404-16.928.24-6.959-.171-13.367.44-19.268 1.659zm-69.96 91.253c0-2.835 2.307-5.142 5.142-5.142h59.96c4.143 0 7.5-3.357 7.5-7.5s-3.357-7.5-7.5-7.5h-37.077c8.879-16.856 26.403-37.633 58.867-37.633.645 0 1.3.009 1.956.025 35.292.884 49.654-5.789 62.321-11.685 9.247-4.305 16.551-7.704 31.727-7.704 22.028 0 31.654 37.815 35.115 56.996h-116.983c-4.143 0-7.5 3.357-7.5 7.5s3.357 7.5 7.5 7.5h138.789c2.836 0 5.143 2.307 5.143 5.142v18.94c0 2.835-2.307 5.142-5.143 5.142h-234.676c-2.835 0-5.142-2.307-5.142-5.142v-18.939zm-19.237 194.895c-1.419-1.444-2.18-3.357-2.144-5.378.057-2.995 2.043-5.667 5.065-6.808 11.691-4.424 19.258-16.482 18.398-29.332-2.371-35.001 3.07-69.972 7.871-100.827.721-4.634 1.412-9.075 2.073-13.469h220.898c.658 4.376 1.347 8.798 2.066 13.413 4.809 30.875 10.259 65.868 7.888 100.881-.874 12.843 6.692 24.905 18.398 29.334 3.019 1.142 5.003 3.81 5.055 6.808.039 2.023-.72 3.932-2.136 5.375-1.418 1.446-3.313 2.242-5.335 2.242h-272.759c-2.024.001-3.92-.794-5.338-2.239z"/><path d="m338.142 63.723c-4.143 0-7.5 3.357-7.5 7.5s3.357 7.5 7.5 7.5h.104c4.143 0 7.5-3.357 7.5-7.5s-3.357-7.5-7.5-7.5z"/><path d="m319.274 76.719c-4.143 0-7.5 3.357-7.5 7.5s3.357 7.5 7.5 7.5h.104c4.143 0 7.5-3.357 7.5-7.5s-3.357-7.5-7.5-7.5z"/><path d="m384.762 81.75h-.109c-4.143 0-7.5 3.357-7.5 7.5s3.357 7.5 7.5 7.5h.109c4.143 0 7.5-3.357 7.5-7.5s-3.358-7.5-7.5-7.5z"/><path d="m204.254 233.923h10.206c4.143 0 7.5-3.357 7.5-7.5s-3.357-7.5-7.5-7.5h-10.206c-4.143 0-7.5 3.357-7.5 7.5s3.357 7.5 7.5 7.5z"/><path d="m169.13 243.713h10.206c4.143 0 7.5-3.357 7.5-7.5s-3.357-7.5-7.5-7.5h-10.206c-4.143 0-7.5 3.357-7.5 7.5s3.357 7.5 7.5 7.5z"/><path d="m408.89 409.973c-4.143 0-7.5 3.357-7.5 7.5s3.357 7.5 7.5 7.5h16.049c4.143 0 7.5-3.357 7.5-7.5s-3.357-7.5-7.5-7.5z"/><path d="m245.234 421.929h-65.862c-4.143 0-7.5 3.357-7.5 7.5s3.357 7.5 7.5 7.5h65.862c4.143 0 7.5-3.357 7.5-7.5s-3.357-7.5-7.5-7.5z"/><path d="m245.234 397.679h-17.95c-4.143 0-7.5 3.357-7.5 7.5s3.357 7.5 7.5 7.5h17.95c4.143 0 7.5-3.357 7.5-7.5s-3.357-7.5-7.5-7.5z"/></g></g></svg>