<svg id="Capa_1" enable-background="new 0 0 512 512" height="512" viewBox="0 0 512 512" width="512" xmlns="http://www.w3.org/2000/svg"><g><g><g><path d="m324.385 404.537c-99.42 0-180.304-80.884-180.304-180.304s80.884-180.303 180.304-180.303 180.304 80.884 180.304 180.304-80.884 180.303-180.304 180.303zm0-317.964c-75.906 0-137.66 61.755-137.66 137.66s61.755 137.66 137.66 137.66 137.66-61.755 137.66-137.66-61.754-137.66-137.66-137.66z" fill="#b3e59f"/></g></g><g><g><path d="m442.613 88.215c27.569 31.676 44.285 73.036 44.285 118.228 0 99.42-80.884 180.304-180.304 180.304-45.193 0-86.552-16.716-118.228-44.285 33.081 38.009 81.791 62.075 136.018 62.075 99.42 0 180.304-80.884 180.304-180.304 0-54.227-24.066-102.936-62.075-136.018z" fill="#95d6a4"/></g></g><g><path d="m384.897 220.541c8.527-9.356 13.575-21.936 13.081-35.704-.937-26.098-22.131-47.376-48.225-48.407-23.011-.909-42.758 13.649-49.689 34.117-3.289 9.714-12.55 16.139-22.806 16.139h-149.194c-10.255 0-19.517-6.426-22.806-16.139-6.93-20.468-26.678-35.025-49.689-34.117-26.095 1.03-47.289 22.308-48.225 48.407-.494 13.767 4.554 26.348 13.081 35.704 1.987 2.18 1.987 5.465 0 7.646-8.527 9.356-13.575 21.936-13.081 35.704.937 26.098 22.131 47.376 48.225 48.407 23.011.909 42.758-13.649 49.689-34.117 3.289-9.714 12.55-16.139 22.806-16.139h149.194c10.255 0 19.517 6.426 22.806 16.139 6.93 20.468 26.678 35.025 49.689 34.117 26.095-1.03 47.289-22.308 48.225-48.407.494-13.767-4.554-26.348-13.081-35.704-1.987-2.181-1.987-5.466 0-7.646z" fill="#f9efda"/></g><g><g><path d="m349.752 279.945c-23.011.909-42.759-13.649-49.689-34.117-3.289-9.714-12.55-16.139-22.805-16.139h-149.194c-10.255 0-19.517 6.426-22.806 16.139-6.93 20.468-26.678 35.025-49.689 34.117-21.114-.834-39.014-14.925-45.577-34.098-1.918 5.633-2.876 11.71-2.649 18.044.937 26.098 22.131 47.376 48.225 48.407 23.011.909 42.759-13.648 49.689-34.117 3.289-9.714 12.55-16.139 22.806-16.139h149.194c10.255 0 19.517 6.426 22.805 16.139 6.93 20.468 26.678 35.025 49.689 34.117 26.095-1.03 47.288-22.308 48.225-48.407.227-6.334-.731-12.411-2.648-18.044-6.561 19.172-24.462 33.264-45.576 34.098z" fill="#f4ddb1"/></g></g><g><circle cx="231.695" cy="392.363" fill="#e4989d" r="75.705"/></g><g><path d="m263.995 323.887c4.63 9.798 7.23 20.744 7.23 32.3 0 41.811-33.895 75.705-75.705 75.705-11.556 0-22.502-2.6-32.3-7.229 12.122 25.652 38.221 43.405 68.476 43.405 41.811 0 75.705-33.894 75.705-75.705 0-30.255-17.754-56.354-43.406-68.476z" fill="#e28086"/></g><g><path d="m469.357 224.234c0-79.938-65.034-144.972-144.972-144.972-62.651 0-118.555 40.894-137.866 100.113h-29.227c20.1-74.692 89.162-128.133 167.092-128.133 28.027 0 55.877 6.888 80.54 19.919 3.57 1.886 7.994.522 9.88-3.049 1.887-3.571.522-7.994-3.048-9.881-26.761-14.14-56.974-21.613-87.372-21.613-42.917 0-84.9 14.925-118.215 42.025-31.679 25.77-54.274 61.406-63.974 100.731h-14.131c-7.236 0-13.617-4.49-15.88-11.172-4.82-14.239-15.308-26.279-28.774-33.035-3.606-1.809-8.003-.354-9.815 3.257-1.811 3.609-.352 8.003 3.257 9.814 10.055 5.044 17.884 14.03 21.481 24.653 4.274 12.625 16.221 21.107 29.731 21.107h149.194c13.508 0 25.456-8.482 29.731-21.106 6.066-17.914 23.488-29.892 42.474-29.155 22.306.881 40.406 19.049 41.207 41.363.407 11.324-3.564 22.162-11.176 30.515-4.547 4.987-4.548 12.51-.001 17.497 7.614 8.355 11.584 19.193 11.177 30.516-.801 22.313-18.901 40.482-41.207 41.363-18.933.751-36.408-11.241-42.474-29.156-4.275-12.624-16.223-21.106-29.731-21.106h-149.194c-13.51 0-25.457 8.482-29.731 21.106-6.042 17.926-23.633 29.931-42.475 29.155-22.305-.881-40.405-19.05-41.206-41.363-.407-11.324 3.564-22.162 11.178-30.517 4.544-4.987 4.544-12.509-.001-17.495-7.614-8.355-11.584-19.193-11.177-30.516.699-19.473 14.503-36.071 33.57-40.363 3.94-.887 6.415-4.799 5.529-8.739-.887-3.939-4.798-6.415-8.739-5.528-25.544 5.749-44.037 27.998-44.973 54.105-.526 14.676 4.438 28.747 14.004 39.789-9.566 11.042-14.53 25.113-14.004 39.789 1.074 29.913 25.339 54.269 55.243 55.45 25.392 1.006 48.773-15.068 56.903-39.078 2.263-6.682 8.645-11.172 15.88-11.172h14.201c5.768 23.208 16.12 45.436 30.228 64.89-14.716 14.987-23.815 35.508-23.815 58.121 0 45.776 37.241 83.017 83.017 83.017 33.351.21 64.214-20.74 76.728-51.354 4.044-9.764 6.289-20.455 6.289-31.663 0-8.255-1.228-16.226-3.482-23.758 4.37.395 8.766.601 13.155.601 79.937 0 144.971-65.034 144.971-144.972zm-282.754 45.118c5.077 15.436 12.844 30.09 22.792 43.061-9.343 2.609-18.021 6.812-25.73 12.302-11.959-16.724-20.932-35.614-26.294-55.363zm113.485 123.011c0 5.463-.662 10.771-1.878 15.867l-16.49-16.49c-4.654-4.655-11.08-7.265-17.678-7.169l-24.924.37.37-24.926c.097-6.581-2.516-13.024-7.169-17.676l-16.49-16.491c5.096-1.216 10.404-1.878 15.867-1.878 37.711 0 68.392 30.681 68.392 68.393zm-99.37-60.945 21.261 21.261c1.874 1.874 2.927 4.469 2.888 7.119l-.376 25.359-25.359.376c-.049 0-.096.001-.144.001-2.6 0-5.135-1.048-6.976-2.888l-21.261-21.261c6.57-12.874 17.093-23.396 29.967-29.967zm-37.416 60.945c0-5.463.662-10.771 1.878-15.867l16.491 16.491c4.57 4.569 10.864 7.171 17.32 7.171.119 0 .238-.001.357-.003l24.924-.37-.37 24.926c-.097 6.581 2.516 13.024 7.169 17.676l16.491 16.491c-5.096 1.216-10.404 1.878-15.867 1.878-37.712.001-68.393-30.681-68.393-68.393zm99.371 60.945-21.261-21.261c-1.874-1.874-2.927-4.469-2.888-7.119l.377-25.359 25.358-.376c2.687-.017 5.245 1.013 7.12 2.888l21.261 21.261c-6.57 12.873-17.093 23.395-29.967 29.966zm-30.978-143.962c-1.935 0-3.848.091-5.751.222-10.277-11.85-18.407-25.582-23.842-40.215h75.155c7.236 0 13.617 4.49 15.88 11.172 19.569 59.652 110.508 46.414 112.146-16.373.526-14.676-4.437-28.747-14.004-39.789 9.567-11.042 14.53-25.112 14.004-39.789-1.074-29.913-25.34-54.27-55.244-55.45-25.419-.991-48.772 15.068-56.902 39.077-2.263 6.683-8.645 11.173-15.88 11.173h-75.261c18.675-50.792 67.668-85.489 122.388-85.489 71.875 0 130.349 58.474 130.349 130.349s-58.473 130.348-130.348 130.348c-6.552 0-13.119-.497-19.559-1.468-14.028-26.032-41.544-43.768-73.131-43.768z"/><path d="m441.21 77.524c-3.157-2.519-7.758-2.001-10.276 1.155-2.519 3.157-2.001 7.757 1.155 10.276 41.491 33.105 65.287 82.412 65.287 135.279 0 88.986-66.688 162.963-155.121 172.076-4.017.414-6.938 4.006-6.524 8.023.398 4.03 4.074 6.952 8.023 6.524 45.873-4.727 88.32-26.253 119.52-60.612 31.421-34.604 48.726-79.355 48.726-126.011 0-57.341-25.802-110.814-70.79-146.71z"/><path d="m29.474 253.133c0 4.038 3.273 7.312 7.312 7.312s7.312-3.274 7.312-7.312c0-4.498 1.651-6.434 4.385-9.641 3.326-3.901 7.882-9.243 7.882-19.13s-4.556-15.229-7.882-19.129c-2.734-3.207-4.385-5.142-4.385-9.64 0-4.038-3.273-7.312-7.312-7.312s-7.312 3.274-7.312 7.312c0 9.887 4.556 15.228 7.882 19.129 5.789 5.273 5.788 14.008 0 19.281-3.327 3.901-7.882 9.243-7.882 19.13z"/><path d="m376.351 195.594c0-4.038-3.273-7.312-7.312-7.312s-7.312 3.274-7.312 7.312c0 4.498-1.651 6.434-4.385 9.641-3.326 3.901-7.882 9.243-7.882 19.13s4.556 15.228 7.882 19.129c2.734 3.207 4.385 5.142 4.385 9.64 0 4.038 3.273 7.312 7.312 7.312s7.312-3.274 7.312-7.312c0-9.887-4.556-15.229-7.882-19.129-5.789-5.273-5.788-14.008 0-19.28 3.327-3.902 7.882-9.244 7.882-19.131z"/></g></g></svg>